<?xml version="1.0" encoding="UTF-8"?>
<svg width="752pt" height="752pt" version="1.1" viewBox="0 0 752 752" xmlns="http://www.w3.org/2000/svg">
 <g fill="#ffbc38">
  <path d="m353.28 417.08-7.207 23.34v-0.003907c-0.94922 3.0781 0.19922 6.4141 2.8398 8.2539 2.6406 1.8398 6.168 1.7617 8.7266-0.19531l18.363-14.012 18.367 14.059c2.5586 1.9531 6.0859 2.0312 8.7266 0.19141 2.6406-1.8398 3.7891-5.1758 2.8398-8.25l-7.207-23.34 18.766-14.332c2.5547-1.918 3.5938-5.2578 2.5703-8.2852-1.0195-3.0273-3.8672-5.0586-7.0625-5.0352h-22.805l-7.125-23.051h-0.003906c-0.96094-3.0938-3.8242-5.2031-7.0664-5.2031-3.2383 0-6.1055 2.1094-7.0664 5.2031l-7.125 23.051h-22.805c-3.1719 0.003906-5.9883 2.0234-7.0039 5.0273s-0.007812 6.3203 2.5117 8.2461zm13.984-12.809c3.2344 0.003907 6.0977-2.0938 7.0664-5.1797l1.6719-5.4336 1.6719 5.3945c0.97266 3.0859 3.8359 5.1836 7.0703 5.1797h6.3867l-5.4844 4.1875c-2.4609 1.8828-3.4883 5.0977-2.5781 8.0586l1.8945 6.1484-4.4414-3.4102h0.003907c-2.6523-2.0234-6.332-2.0234-8.9844 0l-4.4414 3.4102 1.8945-6.1484c0.91406-2.9609-0.11328-6.1758-2.5742-8.0586l-5.4844-4.1875z"/>
  <path d="m227.96 528.32c0.097657 0.13281 0.14844 0.28906 0.25 0.41406 3.6992 4.4414 7.6211 8.6289 11.66 12.676l0.23828 0.24609c2.1172 2.1172 4.2773 4.168 6.4766 6.1797l0.25 0.22266v-0.003906c13.641 12.406 29 22.785 45.598 30.812l0.28906 0.14062c2.2188 1.0586 4.4414 2.043 6.6602 3.0117 0.85938 0.37891 1.7148 0.73828 2.582 1.125 1.8867 0.79297 3.7969 1.5312 5.7109 2.2188 1.2656 0.48047 2.5234 0.96094 3.8047 1.4141 1.6875 0.60547 3.3906 1.1758 5.0977 1.7305 1.543 0.49219 3.1016 0.98828 4.668 1.4805 1.5703 0.49219 3.1172 0.93359 4.6406 1.3242 1.7695 0.48047 3.5586 0.91797 5.3516 1.3477 1.4219 0.33984 2.8398 0.6875 4.2773 0.99219 1.9609 0.42188 3.9375 0.79297 5.918 1.1562 1.3164 0.23828 2.625 0.49609 3.9453 0.73828 2.1445 0.33984 4.3047 0.62109 6.4688 0.89453 1.207 0.14844 2.4062 0.32422 3.6172 0.45703 2.3906 0.25 4.8008 0.42969 7.2148 0.59766 1.0078 0.066406 2.0039 0.17188 3.0117 0.23047 3.418 0.17578 6.8594 0.28125 10.359 0.28125s6.9102-0.10547 10.359-0.28125c1.0078-0.058594 2.0039-0.16406 3.0117-0.23047 2.4141-0.17188 4.8242-0.34766 7.2148-0.59766 1.2148-0.13281 2.4141-0.3125 3.6172-0.45703 2.1602-0.27344 4.3203-0.55469 6.4688-0.89453 1.3164-0.21484 2.625-0.47266 3.9453-0.73828 1.9844-0.36328 3.957-0.73828 5.918-1.1562 1.4336-0.30469 2.8555-0.65234 4.2852-0.99219 1.7891-0.42969 3.5742-0.86719 5.3438-1.3477 1.5547-0.41797 3.1016-0.85938 4.6406-1.3242 1.5391-0.46484 3.0938-0.95703 4.668-1.4805 1.7109-0.55469 3.4102-1.125 5.0977-1.7305 1.2812-0.45312 2.5391-0.93359 3.8047-1.4141 1.918-0.73828 3.8242-1.4805 5.7109-2.2188 0.86719-0.36328 1.7227-0.73828 2.582-1.125 2.2188-0.96875 4.4414-1.9531 6.6602-3.0117l0.28906-0.14062c16.598-8.0273 31.953-18.406 45.594-30.812l0.25-0.22266c2.2188-2.0117 4.3594-4.0625 6.4766-6.1797l0.23828-0.24609c4.0391-4.0469 7.9531-8.2422 11.66-12.676 0.10547-0.125 0.15625-0.28125 0.25-0.41406l0.003907 0.003907c28.656-34.477 44.348-77.895 44.348-122.72 0-44.832-15.691-88.25-44.348-122.73-0.097657-0.13281-0.14844-0.28906-0.25-0.41406-3.6992-4.4414-7.6211-8.6289-11.66-12.676l-0.23828-0.24609c-2.1172-2.1172-4.2773-4.168-6.4766-6.1797l-0.25-0.22266-0.003907 0.003906c-13.641-12.406-28.996-22.781-45.594-30.812l-0.28906-0.14062c-2.2188-1.0586-4.4414-2.043-6.6602-3.0117-0.73828-0.33203-1.5234-0.6875-2.293-1.0156l14.059-42.215v0.003907c0.80859-2.4336 0.30078-5.1133-1.3398-7.082-1.6445-1.9688-4.1875-2.9453-6.7266-2.582l-48.098 6.875-27.082-26.98c-2.8906-2.8906-7.5742-2.8906-10.465 0l-26.988 26.977-48.098-6.875v0.003906c-2.5352-0.36328-5.082 0.61328-6.7266 2.582-1.6406 1.9688-2.1484 4.6484-1.3359 7.082l14.059 42.215c-0.73828 0.32422-1.5234 0.67969-2.293 1.0156-2.2188 0.96875-4.4414 1.9531-6.6602 3.0117l-0.28906 0.14062v-0.003906c-16.602 8.0312-31.957 18.406-45.598 30.812l-0.25 0.22266c-2.2188 2.0117-4.3594 4.0625-6.4766 6.1797l-0.23828 0.24609c-4.0391 4.0469-7.9531 8.2422-11.66 12.676-0.10547 0.125-0.15625 0.28125-0.25 0.41406v-0.003906c-28.66 34.477-44.348 77.895-44.348 122.73 0 44.828 15.688 88.246 44.348 122.72zm9.5586-233.72h46.234c-5 11.941-8.8633 24.328-11.535 36.996h-36.809c-4.0859 0-7.3984 3.3164-7.3984 7.4023v59.199l-29.414-0.003906c1.5469-37.809 15.191-74.121 38.922-103.59zm315.89 103.6-29.414-0.003906v-59.195c0-1.9648-0.78125-3.8438-2.168-5.2344-1.3867-1.3867-3.2695-2.168-5.2305-2.168h-38.547c-3.1523-12.66-7.3633-25.035-12.578-36.996h49.047-0.003906c23.723 29.477 37.355 65.789 38.895 103.59zm-38.922 118.39h-47.625c4.7812-12.031 8.6641-24.398 11.617-37h38.117c1.9609 0 3.8438-0.78125 5.2305-2.168 1.3867-1.3867 2.168-3.2695 2.168-5.2305v-59.199h29.414c-1.5469 37.809-15.191 74.121-38.922 103.6zm-76.898 55.57c-0.23828 0.089843-0.46484 0.18359-0.70312 0.26562-2.1523 0.79297-4.3438 1.4805-6.5352 2.2188-0.50391 0.16406-1.0078 0.33984-1.4805 0.49609 13.02-12.566 23.645-27.391 31.367-43.754h40.988c-18.047 17.992-39.75 31.895-63.637 40.773zm-122.47 0.26562c-0.23828-0.082032-0.46484-0.17578-0.70313-0.26562-23.887-8.8789-45.59-22.781-63.637-40.773h40.988-0.003906c7.7344 16.367 18.371 31.191 31.398 43.754-0.50391-0.15625-1.0078-0.33203-1.4805-0.49609-2.2188-0.70703-4.4102-1.4258-6.5625-2.2188zm-26.434-92.836h79.918v37h-67.336c-5.2188-11.961-9.4258-24.34-12.582-37zm11.379-184.99h68.539v37l-81.328-0.003907c2.8906-12.762 7.1797-25.172 12.785-36.996zm20.289-57.473c2.5-0.82031 4.9727-1.7227 7.5039-2.4336 0.44531-0.125 0.87891-0.25781 1.3242-0.37891l0.14844-0.042968c4.8281-1.3086 9.7031-2.4141 14.621-3.3164l0.69531-0.125h0.003907c20.746-3.6797 41.977-3.6797 62.719 0l0.69531 0.125c4.9336 0.89844 9.8086 2.0039 14.621 3.3164l0.14844 0.042968c0.44531 0.11719 0.87891 0.25 1.3242 0.37891 2.5312 0.73828 5.0039 1.6133 7.5039 2.4336 1.1055 0.53125 2.1406 1.1953 3.0859 1.9727-3.0586 2.2344-6.5117 3.8828-10.172 4.8555-0.63672 0.21484-1.2969 0.41406-1.9609 0.61328-1.4219 0.42188-2.9609 0.84375-4.6016 1.2422-0.48047 0.11719-0.94141 0.24609-1.4336 0.35547-2.2188 0.51172-4.5938 1-7.1836 1.4805-0.5625 0.097656-1.1602 0.17188-1.7305 0.25781-2.043 0.33203-4.2266 0.62109-6.4961 0.89453-0.96094 0.10937-1.918 0.23047-2.9023 0.33203-2.7891 0.28125-5.7344 0.52344-8.8789 0.70312-0.82812 0.050781-1.6719 0.082031-2.5078 0.11719-3.4766 0.13281-7.0312 0.25-10.879 0.25-3.6992 0-7.1172-0.11719-10.469-0.26562-1.1016-0.050781-2.2188-0.097656-3.3008-0.16406-2.7227-0.16406-5.2891-0.37891-7.7695-0.62109-1.6211-0.15625-3.1953-0.34766-4.7578-0.53906-1.2148-0.15625-2.3828-0.31641-3.5312-0.48828-1.4805-0.21484-2.9609-0.42969-4.3789-0.67969-2.1367-0.37891-4.1719-0.77734-6.0391-1.207-0.80078-0.17578-1.5469-0.37891-2.3086-0.57031-1.3906-0.34766-2.707-0.73828-3.9297-1.0664-0.73828-0.22266-1.4805-0.44531-2.2188-0.67969-3.625-0.97266-7.0352-2.6055-10.062-4.8203 0.95312-0.78516 1.9961-1.4453 3.1133-1.9727zm142.5 94.469h-79.449v-36.996h65.762c5.7031 11.879 10.285 24.266 13.688 36.996zm-79.449-51.797v-14.918c14.348-0.23047 28.621-2.1836 42.504-5.8242 5.6797 6.4453 10.773 13.387 15.211 20.742zm-14.801-14.918v14.918h-60.336c4.8828-7.6562 10.699-14.676 17.312-20.895 14.043 3.7461 28.492 5.7539 43.023 5.9766zm-90.469 81.516h231.06v118.39h-266.39v-118.39zm172.61 170.2h-67.336v-37h79.914c-3.1523 12.66-7.3594 25.039-12.578 37zm-67.336 14.797h60.121c-16.043 29.215-37.355 47.867-60.121 51.223zm-14.801 0v51.223c-22.77-3.3516-44.078-22.008-60.121-51.223zm89.535-251.59c-5.1016-9.4727-11.109-18.43-17.941-26.742 3.8711-2.0469 6.9688-5.3086 8.8125-9.2852 19.422 8.7891 37.109 20.992 52.219 36.027zm-155.14-36.027c1.6758 3.6953 4.4688 6.7656 7.9922 8.7812-7.7812 8.1836-14.473 17.344-19.898 27.246h-40.312c15.109-15.035 32.797-27.238 52.219-36.027zm-74.988 169.22v59.199c0 1.9609 0.77734 3.8438 2.168 5.2305 1.3867 1.3867 3.2695 2.168 5.2305 2.168h38.117c2.9531 12.602 6.8359 24.969 11.617 37h-47.625c-23.73-29.477-37.375-65.789-38.922-103.6zm117.34-214.66c2.3086 0.34766 4.6445-0.43359 6.2812-2.0938l24.367-24.367 24.367 24.367c1.6406 1.6602 3.9766 2.4375 6.2852 2.0938l39.957-5.707-10.109 30.34c-0.37109-0.125-0.73828-0.19922-1.1172-0.31641l-0.18359-0.082032c-19.004-6.6758-39.062-9.8477-59.199-9.3633-20.137-0.48438-40.191 2.6875-59.195 9.3633l-0.16406 0.058594c-0.37109 0.11719-0.73828 0.19141-1.1172 0.31641l-10.109-30.34z"/>
 </g>
</svg>
