<?xml version="1.0" encoding="UTF-8"?>
<svg width="752pt" height="752pt" version="1.1" viewBox="0 0 752 752" xmlns="http://www.w3.org/2000/svg">
 <g fill="#ffbc38">
  <path d="m154.01 257.61v103.6h162.79v-103.6zm57.715 84.355-11.84 9.6211-33.297-42.18 33.297-41.438 11.84 9.6211-25.898 31.816zm23.68 5.9219-14.801-2.9609 14.801-73.996 14.801 2.9609zm35.52 2.9609-11.84-9.6211 25.898-32.559-25.898-32.559 11.84-9.6211 33.297 41.438z"/>
  <path d="m420.4 464.8v133.2h177.59v-133.2zm74 44.398h-14.801v11.84c0 3.6992-1.4805 7.3984-4.4414 10.359 2.9609 2.9609 4.4414 6.6602 4.4414 10.359v11.84h14.801v14.801h-14.801c-8.1406 0-14.801-6.6602-14.801-14.801v-11.84l-10.359-10.359 10.359-10.359v-11.84c0-8.1406 6.6602-14.801 14.801-14.801h14.801zm59.195 32.559v11.84c0 8.1406-6.6602 14.801-14.801 14.801h-14.801v-14.801h14.801v-11.84c0-3.6992 1.4805-7.3984 4.4414-10.359-2.9609-2.9609-4.4414-6.6602-4.4414-10.359v-11.84h-14.801v-14.801h14.801c8.1406 0 14.801 6.6602 14.801 14.801v11.84l10.359 10.359z"/>
  <path d="m531.39 450h14.801v-295.99h-340.39v88.797h325.59zm-14.797-281.19h14.801v14.801h-14.801zm-29.602 0h14.801v14.801h-14.801zm-29.598 59.199h-236.79v-29.598h236.79zm0-59.199h14.801v14.801h-14.801zm14.801 59.199v-29.598h59.199v29.598z"/>
  <path d="m405.6 568.39h-184.99v-192.39h-14.801v207.19h199.79z"/>
  <path d="m331.6 257.61h170.19v14.801h-170.19z"/>
  <path d="m250.21 464.8h155.39v14.801h-155.39z"/>
  <path d="m250.21 494.4h155.39v14.801h-155.39z"/>
  <path d="m250.21 524h155.39v14.801h-155.39z"/>
  <path d="m250.21 376h251.59v14.801h-251.59z"/>
  <path d="m250.21 405.6h251.59v14.801h-251.59z"/>
  <path d="m250.21 435.2h251.59v14.801h-251.59z"/>
  <path d="m331.6 287.2h170.19v14.801h-170.19z"/>
  <path d="m331.6 316.8h170.19v14.801h-170.19z"/>
  <path d="m331.6 346.4h170.19v14.801h-170.19z"/>
 </g>
</svg>
