<?xml version="1.0" encoding="UTF-8"?>
<svg width="752pt" height="752pt" version="1.1" viewBox="0 0 752 752" xmlns="http://www.w3.org/2000/svg">
 <g fill="#ffbc38">
  <path d="m376 519.02c-58.723 0-107.03-45.465-111.77-102.29h-118.39v125.02c0 15.156 12.312 27.469 27.469 27.469h405.39c15.156 0 27.469-12.312 27.469-27.469l-0.003906-125.02h-118.39c-4.7344 57.777-53.039 102.29-111.77 102.29z"/>
  <path d="m578.7 233.93h-31.258v-17.996c0-4.7344-3.7891-9.4727-9.4727-9.4727h-36.938c-4.7344 0-9.4727 3.7891-9.4727 9.4727v17.996h-29.363l-15.156-43.57c-1.8945-4.7344-6.6289-7.5781-12.312-7.5781l-118.39 0.003906c-5.6836 0-10.418 2.8398-12.312 7.5781l-15.156 43.57h-29.363v-18c0-4.7344-3.7891-9.4727-9.4727-9.4727l-36.938 0.003907c-4.7344 0-9.4727 3.7891-9.4727 9.4727v17.992h-30.309c-15.156 0-27.469 12.312-27.469 27.469v136.39h119.34c4.7344-56.828 53.043-102.29 111.77-102.29 58.723 0 107.03 45.465 111.77 102.29h119.34l-0.003906-136.39c-1.8945-15.156-14.207-27.469-29.359-27.469zm-268.05-4.7344 10.418-28.414h110.82l10.418 28.414zm260.47 75.773c0 4.7344-3.7891 7.5781-7.5781 7.5781h-60.617c-4.7344 0-7.5781-3.7891-7.5781-7.5781v-22.73c0-4.7344 3.7891-7.5781 7.5781-7.5781h60.617c4.7344 0 7.5781 3.7891 7.5781 7.5781z"/>
  <path d="m317.28 385.47c-9.4727 0-17.996-3.7891-24.625-10.418-2.8398 6.6289-4.7344 14.207-5.6836 22.73 0 2.8398-0.94531 6.6289-0.94531 9.4727v9.4727c4.7344 44.516 42.621 80.508 89.035 80.508 46.41 0 84.297-35.047 89.035-80.508v-9.4727-9.4727c-4.7344-44.516-42.621-80.508-89.035-80.508-13.262 0-24.625 2.8398-35.992 7.5781 6.6289 6.6289 11.367 15.156 11.367 25.574 0.94141 19.891-14.215 35.043-33.156 35.043zm29.363 31.258c0.94531 1.8945 1.8945 4.7344 1.8945 7.5781 0 9.4727-7.5781 17.051-17.051 17.051s-17.051-7.5781-17.051-17.051c0-2.8398 0.94531-5.6836 1.8945-7.5781 2.8398-5.6836 8.5234-9.4727 15.156-9.4727 6.6289 0 12.312 3.7891 15.156 9.4727z"/>
 </g>
</svg>
