<?xml version="1.0" encoding="UTF-8"?>
<svg width="752pt" height="752pt" version="1.1" viewBox="0 0 752 752" xmlns="http://www.w3.org/2000/svg">
 <g fill="#ffbc38">
  <path d="m442.78 185.15h-11.84c-1.4219 0-2.3672-0.94531-2.3672-2.3672s0.94531-2.3672 2.3672-2.3672h11.84c1.4219 0 2.3672 0.94531 2.3672 2.3672 0 1.418-0.94922 2.3672-2.3672 2.3672z"/>
  <path d="m426.2 172.36c-0.47266 0-1.4219-0.47266-1.8945-0.94531-0.94531-0.94922-0.94531-2.8438 0.003906-3.793l8.5234-8.5234c0.94531-0.94531 2.8398-0.94531 3.7891 0 0.94531 0.94531 0.94531 2.8398 0 3.7891l-8.5273 8.5234c-0.47266 0.47266-0.94531 0.94922-1.8945 0.94922z"/>
  <path d="m434.73 207.41c-0.47266 0-1.4219-0.47266-1.8945-0.94531l-8.5234-8.5234c-0.94531-0.94531-0.94531-2.8398 0-3.7891 0.94531-0.94531 2.8398-0.94531 3.7891 0l8.5234 8.5234c0.94531 0.94531 0.94531 2.8398 0 3.7891-0.47656 0.94531-1.4219 0.94531-1.8945 0.94531z"/>
  <path d="m412.94 172.84v-24.629c0-0.94531-0.47266-1.8945-1.8945-2.3672-0.94531-0.47266-2.3672 0-2.8398 0.94531 0 0-16.102 18.941-47.359 18.941h-29.836c-3.7891 0-7.1055 1.8945-8.9961 4.7344h-0.47266-5.2109c-1.8945 0-3.3164 1.4219-3.3164 3.3164v18.941c0 1.8945 1.4219 3.3164 3.3164 3.3164h5.2109c1.4219 1.8945 3.7891 3.3164 6.1562 4.2617l15.629 41.203c0.47266 1.4219 1.8945 2.8398 3.7891 2.8398h15.156c1.4219 0 2.8398-0.94531 3.7891-2.3672 0.47266-1.4219 0.47266-3.3164-0.47266-4.2617l-8.0508-8.9961-10.418-27.469h13.734c31.258 0 47.359 18.941 47.359 18.941 0.47266 0.47266 1.4219 0.94531 1.8945 0.94531h0.94531c0.94531-0.47266 1.8945-1.4219 1.8945-2.3672v-24.625c4.7344-0.94531 8.0508-5.2109 8.0508-10.418-0.007812-5.2031-3.3242-9.9414-8.0586-10.887z"/>
  <path d="m192.73 458.41c-7.5781-21.312-12.312-44.043-12.312-67.723 0-79.09 46.883-146.81 114.13-178.07v-20.836c-77.668 31.727-133.08 108.92-133.08 198.43 0 29.363 5.6836 57.305 16.574 82.402z"/>
  <path d="m572.54 390.21c0 21.785-3.7891 42.621-9.9453 62.039l15.156 15.156c9.4727-24.152 14.207-50.199 14.207-77.195 0-90.926-56.355-168.59-136.39-200.32v20.836c69.141 30.785 116.97 99.93 116.97 179.49z"/>
  <path d="m453.2 571.12c-23.68 9.9453-49.254 15.629-76.719 15.629-25.102 0-49.254-4.7344-71.512-13.262l-14.68 14.68c26.52 11.367 55.41 17.996 85.719 17.996 32.676 0 63.461-7.1055 90.926-20.363z"/>
  <path d="m582.01 510.02c-7.5781-28.414-36.465-45.465-65.355-37.887-28.414 7.5781-45.465 36.465-37.887 65.355 3.7891 13.734 11.84 24.625 22.73 31.258l-14.207 21.312 56.355-14.68c28.895-7.582 45.941-36.941 38.363-65.359zm-48.305 33.625h-28.414v-8.5234h28.414zm24.629-17.047h-53.043v-8.5273h53.043zm0-16.102h-53.043v-8.5234h53.043z"/>
  <path d="m175.68 511.92h18.941v51.621h-18.941z"/>
  <path d="m204.09 511.45 27.941-31.73 11.84 2.3672-8.5234 26.996h41.676l-11.367 54.461h-61.566"/>
  <path d="m451.77 295.02c-1.8945-0.94531-3.7891-1.4219-5.6836-0.47266h-0.47266c-0.94531 0.47266-1.8945 0.94531-2.3672 1.8945l-15.156 22.258c-0.94531 1.4219-1.4219 2.8398-0.94531 4.7344 0.47266 1.4219 0.94531 2.8398 2.3672 3.7891 1.8945 1.4219 4.2617 1.4219 6.1562 0.47266 0.94531-0.47266 1.8945-0.94531 2.3672-1.8945l15.156-22.258c0.94531-1.4219 1.4219-2.8398 0.94531-4.7344 0-1.4219-0.94531-2.8438-2.3672-3.7891z"/>
  <path d="m304.49 295.96c1.4219-1.4219 3.7891-1.4219 5.6836-0.94531h0.47266c0.94531 0.47266 1.8945 0.94531 2.3672 1.8945l16.574 21.312c0.94531 1.4219 1.4219 2.8398 1.4219 4.7344 0 1.4219-0.94531 3.3164-2.3672 4.2617-1.8945 1.4219-4.2617 1.4219-6.1562 0.94531-0.94531-0.47266-1.8945-0.94531-2.3672-1.8945l-16.574-21.312c-0.94531-1.4219-1.4219-2.8398-1.4219-4.7344 0.47266-1.8906 0.94531-3.3125 2.3672-4.2617z"/>
  <path d="m480.19 398.26-45.938-50.672c-0.94531-1.4219-2.8398-1.8945-4.7344-1.8945h-101.82-0.47266c-1.4219 0-2.8398 0.94531-3.7891 1.8945l-46.883 50.672c-2.3672 2.3672-1.8945 6.1562 0 8.5234l97.086 97.086c0.94531 0.94531 2.8398 1.8945 4.2617 1.8945 1.4219 0 3.3164-0.47266 4.2617-1.8945l98.027-96.609c2.3711-2.3672 2.3711-6.6289 0-9zm-18.469-1.8906h-37.414l-18.469-38.359h20.836zm-51.145 12.312-32.203 74.824-32.203-74.824zm-63.934-12.312 18.469-38.359h26.992l18.469 38.359zm4.2617-38.363-18.469 38.359-36.941 0.003907 35.047-38.359zm-17.996 50.676 27.469 63.461-63.934-63.461zm127.87 0-63.934 63.934 27.469-63.461h36.465z"/>
  <path d="m379.32 281.29c-1.8945 0-3.7891 0.94531-5.2109 2.8398v0.47266c-0.47266 0.94531-0.94531 1.8945-0.94531 3.3164l-0.47266 26.523c0 1.4219 0.47266 3.3164 1.8945 4.2617 0.94531 1.4219 2.8398 1.8945 4.2617 1.8945 2.3672 0 4.2617-0.94531 5.2109-2.8398 0.47266-0.94531 0.94531-1.8945 0.94531-3.3164l0.47266-26.992c0-1.4219-0.47266-3.3164-1.8945-4.2617-1.4219-0.95312-2.8398-1.8984-4.2617-1.8984z"/>
 </g>
</svg>
