<?xml version="1.0" encoding="UTF-8"?>
<svg width="752pt" height="752pt" version="1.1" viewBox="0 0 752 752" xmlns="http://www.w3.org/2000/svg">
 <g fill="#ffbc38">
  <path d="m567.8 187.04h-383.6c-18.469 0-33.152 14.68-33.152 33.152l0.003906 302.62c0 23.207 18.941 42.148 42.148 42.148h365.13c23.207 0 42.148-18.941 42.148-42.148v-302.62c0.47266-18.469-14.211-33.148-32.68-33.148zm-251.47 30.781c9.9453 0 17.996 8.0508 17.996 17.996 0 9.9453-8.0508 17.996-17.996 17.996-9.9453 0-17.996-8.0508-17.996-17.996 0.47266-10.418 8.0508-17.996 17.996-17.996zm-53.988 0c9.9453 0 17.996 8.0508 17.996 17.996 0 9.9453-8.0508 17.996-17.996 17.996s-17.996-8.0508-17.996-17.996c0.47266-10.418 8.0508-17.996 17.996-17.996zm-53.988 0c9.9453 0 17.996 8.0508 17.996 17.996 0 9.9453-8.0508 17.996-17.996 17.996-9.9453 0-17.996-8.0508-17.996-17.996 0-10.418 8.0508-17.996 17.996-17.996zm361.81 304.99c0 6.1562-5.2109 11.367-11.367 11.367l-365.6-0.003907c-6.1562 0-11.367-5.207-11.367-11.363v-238.69h388.34z"/>
  <path d="m295.49 487.77h161.02c17.996 0 32.203-14.207 32.203-32.203l0.003906-92.82c0-17.996-14.207-32.203-32.203-32.203h-161.02c-17.996 0-32.203 14.207-32.203 32.203v92.82c0 17.996 14.68 32.203 32.203 32.203zm54.461-107.03c0-6.1562 6.6289-9.4727 11.84-6.6289l45.938 28.414c4.7344 2.8398 4.7344 9.9453 0 12.785l-45.938 28.414c-5.2109 3.3164-11.84-0.47266-11.84-6.6289z"/>
 </g>
</svg>
