<?xml version="1.0" encoding="UTF-8"?>
<svg width="752pt" height="752pt" version="1.1" viewBox="0 0 752 752" xmlns="http://www.w3.org/2000/svg">
 <g fill="#ffbc38">
  <path d="m553.59 250.21h-59.199v14.801h59.199v199.79l-355.18-0.003906v-199.79h59.199v-14.801h-59.199c-8.1406 0-14.801 6.6602-14.801 14.801v229.39c0 8.1406 6.6602 14.801 14.801 14.801h155.39v53.277c-21.461 2.9609-42.918 9.6211-59.199 20.719v14.801h162.79v-14.801c-16.281-11.098-37.738-17.758-59.199-20.719v-53.281h155.39c8.1406 0 14.801-6.6602 14.801-14.801v-229.39c0-8.1406-6.6602-14.801-14.801-14.801zm-184.99 229.39h14.801v14.801h-14.801z"/>
  <path d="m464.8 154.01h-177.59c-8.1406 0-14.801 6.6602-14.801 14.801v251.59c0 8.1406 6.6602 14.801 14.801 14.801h177.59c8.1406 0 14.801-6.6602 14.801-14.801v-251.59c0-8.1367-6.6602-14.797-14.801-14.797zm-140.59 14.797h103.6c4.4414 0 7.3984 2.9609 7.3984 7.3984 0 4.4414-2.9609 7.3984-7.3984 7.3984l-103.6 0.003906c-4.4414 0-7.3984-2.9609-7.3984-7.3984 0-4.4414 2.9609-7.4023 7.3984-7.4023zm51.797 251.59c-4.4414 0-7.3984-2.9609-7.3984-7.3984 0-4.4414 2.9609-7.3984 7.3984-7.3984 4.4414 0 7.3984 2.9609 7.3984 7.3984 0.003906 4.4414-2.957 7.3984-7.3984 7.3984zm88.797-29.598h-177.59v-192.39h177.59z"/>
  <path d="m302 213.21h147.99v29.598h-147.99z"/>
  <path d="m302 257.61h66.598v44.398h-66.598z"/>
  <path d="m383.4 257.61h66.598v44.398h-66.598z"/>
  <path d="m302 316.8h147.99v14.801h-147.99z"/>
  <path d="m302 346.4h133.2v14.801h-133.2z"/>
 </g>
</svg>
